<mxfile host="app.diagrams.net" agent="Mozilla/5.0 (Windows NT 10.0; Win64; x64) AppleWebKit/537.36 (KHTML, like Gecko) Chrome/132.0.0.0 Safari/537.36 Edg/132.0.0.0" version="26.0.15">
  <diagram name="Страница — 1" id="QoAEphnWqdb9rL-vtWD7">
    <mxGraphModel dx="983" dy="547" grid="1" gridSize="10" guides="1" tooltips="1" connect="1" arrows="1" fold="1" page="1" pageScale="1" pageWidth="827" pageHeight="1169" math="0" shadow="0">
      <root>
        <mxCell id="0" />
        <mxCell id="1" parent="0" />
        <mxCell id="t-YVA2jv_oW3WsaUQnIL-3" style="edgeStyle=orthogonalEdgeStyle;rounded=0;orthogonalLoop=1;jettySize=auto;html=1;strokeColor=#582524;" parent="1" source="t-YVA2jv_oW3WsaUQnIL-1" target="t-YVA2jv_oW3WsaUQnIL-2" edge="1">
          <mxGeometry relative="1" as="geometry" />
        </mxCell>
        <mxCell id="t-YVA2jv_oW3WsaUQnIL-1" value="Запуск игры" style="rounded=0;whiteSpace=wrap;html=1;strokeColor=#582524;fontColor=#EDDBC7;fillColor=#934A37;" parent="1" vertex="1">
          <mxGeometry x="10" y="80" width="120" height="60" as="geometry" />
        </mxCell>
        <mxCell id="t-YVA2jv_oW3WsaUQnIL-5" style="edgeStyle=orthogonalEdgeStyle;rounded=0;orthogonalLoop=1;jettySize=auto;html=1;strokeColor=#582524;" parent="1" source="t-YVA2jv_oW3WsaUQnIL-2" target="t-YVA2jv_oW3WsaUQnIL-4" edge="1">
          <mxGeometry relative="1" as="geometry" />
        </mxCell>
        <mxCell id="t-YVA2jv_oW3WsaUQnIL-2" value="Стартовое меню" style="rounded=0;whiteSpace=wrap;html=1;strokeColor=#582524;fontColor=#EDDBC7;fillColor=#934A37;" parent="1" vertex="1">
          <mxGeometry x="180" y="80" width="120" height="60" as="geometry" />
        </mxCell>
        <mxCell id="t-YVA2jv_oW3WsaUQnIL-7" style="edgeStyle=orthogonalEdgeStyle;rounded=0;orthogonalLoop=1;jettySize=auto;html=1;strokeColor=#582524;" parent="1" source="t-YVA2jv_oW3WsaUQnIL-4" target="t-YVA2jv_oW3WsaUQnIL-6" edge="1">
          <mxGeometry relative="1" as="geometry" />
        </mxCell>
        <mxCell id="t-YVA2jv_oW3WsaUQnIL-4" value="Начало игры" style="rounded=0;whiteSpace=wrap;html=1;strokeColor=#582524;fontColor=#EDDBC7;fillColor=#934A37;" parent="1" vertex="1">
          <mxGeometry x="340" y="80" width="120" height="60" as="geometry" />
        </mxCell>
        <mxCell id="t-YVA2jv_oW3WsaUQnIL-9" style="edgeStyle=orthogonalEdgeStyle;rounded=0;orthogonalLoop=1;jettySize=auto;html=1;strokeColor=#582524;" parent="1" source="t-YVA2jv_oW3WsaUQnIL-6" target="t-YVA2jv_oW3WsaUQnIL-8" edge="1">
          <mxGeometry relative="1" as="geometry" />
        </mxCell>
        <mxCell id="t-YVA2jv_oW3WsaUQnIL-11" style="edgeStyle=orthogonalEdgeStyle;rounded=0;orthogonalLoop=1;jettySize=auto;html=1;entryX=0.5;entryY=0;entryDx=0;entryDy=0;strokeColor=#582524;" parent="1" source="t-YVA2jv_oW3WsaUQnIL-6" target="t-YVA2jv_oW3WsaUQnIL-10" edge="1">
          <mxGeometry relative="1" as="geometry" />
        </mxCell>
        <mxCell id="t-YVA2jv_oW3WsaUQnIL-6" value="Загрузка игровой сцены" style="rounded=0;whiteSpace=wrap;html=1;strokeColor=#582524;fontColor=#EDDBC7;fillColor=#934A37;" parent="1" vertex="1">
          <mxGeometry x="500" y="80" width="120" height="60" as="geometry" />
        </mxCell>
        <mxCell id="INTvyp4umUeD44u8Y7Vy-20" style="edgeStyle=orthogonalEdgeStyle;rounded=0;orthogonalLoop=1;jettySize=auto;html=1;entryX=1;entryY=0.25;entryDx=0;entryDy=0;exitX=0.5;exitY=1;exitDx=0;exitDy=0;strokeColor=#582524;" parent="1" source="t-YVA2jv_oW3WsaUQnIL-8" target="t-YVA2jv_oW3WsaUQnIL-10" edge="1">
          <mxGeometry relative="1" as="geometry">
            <Array as="points">
              <mxPoint x="730" y="195" />
            </Array>
          </mxGeometry>
        </mxCell>
        <mxCell id="t-YVA2jv_oW3WsaUQnIL-8" value="Обучающий квест" style="rounded=0;whiteSpace=wrap;html=1;strokeColor=#582524;fontColor=#EDDBC7;fillColor=#934A37;" parent="1" vertex="1">
          <mxGeometry x="670" y="80" width="120" height="60" as="geometry" />
        </mxCell>
        <mxCell id="t-YVA2jv_oW3WsaUQnIL-14" style="edgeStyle=orthogonalEdgeStyle;rounded=0;orthogonalLoop=1;jettySize=auto;html=1;strokeColor=#582524;" parent="1" source="t-YVA2jv_oW3WsaUQnIL-10" target="t-YVA2jv_oW3WsaUQnIL-13" edge="1">
          <mxGeometry relative="1" as="geometry" />
        </mxCell>
        <mxCell id="t-YVA2jv_oW3WsaUQnIL-10" value="Сбор ресурсова" style="rounded=0;whiteSpace=wrap;html=1;strokeColor=#582524;fontColor=#EDDBC7;fillColor=#934A37;" parent="1" vertex="1">
          <mxGeometry x="500" y="180" width="120" height="60" as="geometry" />
        </mxCell>
        <mxCell id="t-YVA2jv_oW3WsaUQnIL-16" style="edgeStyle=orthogonalEdgeStyle;rounded=0;orthogonalLoop=1;jettySize=auto;html=1;strokeColor=#582524;" parent="1" source="t-YVA2jv_oW3WsaUQnIL-13" target="t-YVA2jv_oW3WsaUQnIL-15" edge="1">
          <mxGeometry relative="1" as="geometry" />
        </mxCell>
        <mxCell id="t-YVA2jv_oW3WsaUQnIL-13" value="Обустройство поселения" style="rounded=0;whiteSpace=wrap;html=1;strokeColor=#582524;fontColor=#EDDBC7;fillColor=#934A37;" parent="1" vertex="1">
          <mxGeometry x="500" y="280" width="120" height="60" as="geometry" />
        </mxCell>
        <mxCell id="INTvyp4umUeD44u8Y7Vy-4" style="edgeStyle=orthogonalEdgeStyle;rounded=0;orthogonalLoop=1;jettySize=auto;html=1;strokeColor=#582524;" parent="1" source="t-YVA2jv_oW3WsaUQnIL-15" target="INTvyp4umUeD44u8Y7Vy-1" edge="1">
          <mxGeometry relative="1" as="geometry" />
        </mxCell>
        <mxCell id="t-YVA2jv_oW3WsaUQnIL-15" value="&lt;div&gt;Оборона&amp;nbsp;&lt;/div&gt;&lt;div&gt;поселения&lt;/div&gt;" style="rounded=0;whiteSpace=wrap;html=1;strokeColor=#582524;fontColor=#EDDBC7;fillColor=#934A37;" parent="1" vertex="1">
          <mxGeometry x="500" y="380" width="120" height="60" as="geometry" />
        </mxCell>
        <mxCell id="t-YVA2jv_oW3WsaUQnIL-37" style="edgeStyle=orthogonalEdgeStyle;rounded=0;orthogonalLoop=1;jettySize=auto;html=1;strokeColor=#582524;" parent="1" source="t-YVA2jv_oW3WsaUQnIL-34" edge="1">
          <mxGeometry relative="1" as="geometry">
            <mxPoint x="240" y="140" as="targetPoint" />
          </mxGeometry>
        </mxCell>
        <mxCell id="t-YVA2jv_oW3WsaUQnIL-34" value="Победа" style="rounded=0;whiteSpace=wrap;html=1;strokeColor=#582524;fontColor=#EDDBC7;fillColor=#934A37;" parent="1" vertex="1">
          <mxGeometry x="294" y="600" width="120" height="60" as="geometry" />
        </mxCell>
        <mxCell id="pxTbZ2emt06Gn4SpNx5B-2" style="edgeStyle=orthogonalEdgeStyle;rounded=0;orthogonalLoop=1;jettySize=auto;html=1;entryX=1;entryY=0.75;entryDx=0;entryDy=0;exitX=0.5;exitY=0;exitDx=0;exitDy=0;strokeColor=#582524;" parent="1" source="t-YVA2jv_oW3WsaUQnIL-38" target="t-YVA2jv_oW3WsaUQnIL-10" edge="1">
          <mxGeometry relative="1" as="geometry" />
        </mxCell>
        <mxCell id="t-YVA2jv_oW3WsaUQnIL-38" value="Выполнение побочных заданий" style="rounded=0;whiteSpace=wrap;html=1;strokeColor=#582524;fontColor=#EDDBC7;fillColor=#934A37;" parent="1" vertex="1">
          <mxGeometry x="670" y="280" width="120" height="60" as="geometry" />
        </mxCell>
        <mxCell id="INTvyp4umUeD44u8Y7Vy-2" style="edgeStyle=orthogonalEdgeStyle;rounded=0;orthogonalLoop=1;jettySize=auto;html=1;strokeColor=#582524;" parent="1" source="pxTbZ2emt06Gn4SpNx5B-6" edge="1">
          <mxGeometry relative="1" as="geometry">
            <mxPoint x="240" y="140" as="targetPoint" />
          </mxGeometry>
        </mxCell>
        <mxCell id="INTvyp4umUeD44u8Y7Vy-12" style="edgeStyle=orthogonalEdgeStyle;rounded=0;orthogonalLoop=1;jettySize=auto;html=1;entryX=0;entryY=0.5;entryDx=0;entryDy=0;strokeColor=#582524;" parent="1" source="INTvyp4umUeD44u8Y7Vy-1" target="INTvyp4umUeD44u8Y7Vy-14" edge="1">
          <mxGeometry relative="1" as="geometry">
            <mxPoint x="670" y="500" as="targetPoint" />
          </mxGeometry>
        </mxCell>
        <mxCell id="INTvyp4umUeD44u8Y7Vy-13" value="&lt;font style=&quot;font-size: 14px;&quot;&gt;Да&lt;/font&gt;" style="edgeLabel;html=1;align=center;verticalAlign=middle;resizable=0;points=[];fontColor=#582524;labelBackgroundColor=default;fontStyle=0" parent="INTvyp4umUeD44u8Y7Vy-12" connectable="0" vertex="1">
          <mxGeometry x="-0.0857" y="3" relative="1" as="geometry">
            <mxPoint x="-12" y="3" as="offset" />
          </mxGeometry>
        </mxCell>
        <mxCell id="INTvyp4umUeD44u8Y7Vy-1" value="Успех?" style="rhombus;whiteSpace=wrap;html=1;strokeColor=#582524;fontColor=#EDDBC7;fillColor=#74762D;" parent="1" vertex="1">
          <mxGeometry x="520" y="480" width="80" height="80" as="geometry" />
        </mxCell>
        <mxCell id="pxTbZ2emt06Gn4SpNx5B-3" style="edgeStyle=orthogonalEdgeStyle;rounded=0;orthogonalLoop=1;jettySize=auto;html=1;entryX=0.5;entryY=1;entryDx=0;entryDy=0;strokeColor=#582524;" parent="1" source="INTvyp4umUeD44u8Y7Vy-14" target="t-YVA2jv_oW3WsaUQnIL-38" edge="1">
          <mxGeometry relative="1" as="geometry" />
        </mxCell>
        <mxCell id="pxTbZ2emt06Gn4SpNx5B-9" value="Нет" style="edgeLabel;html=1;align=center;verticalAlign=middle;resizable=0;points=[];fontColor=#582524;labelBackgroundColor=default;" parent="pxTbZ2emt06Gn4SpNx5B-3" vertex="1" connectable="0">
          <mxGeometry x="-0.7119" relative="1" as="geometry">
            <mxPoint as="offset" />
          </mxGeometry>
        </mxCell>
        <mxCell id="INTvyp4umUeD44u8Y7Vy-14" value="Это последняя волна?" style="rhombus;whiteSpace=wrap;html=1;strokeColor=#582524;fontColor=#EDDBC7;fillColor=#74762D;" parent="1" vertex="1">
          <mxGeometry x="670" y="460" width="120" height="120" as="geometry" />
        </mxCell>
        <mxCell id="pxTbZ2emt06Gn4SpNx5B-5" style="edgeStyle=orthogonalEdgeStyle;rounded=0;orthogonalLoop=1;jettySize=auto;html=1;entryX=1;entryY=0.5;entryDx=0;entryDy=0;exitX=0.5;exitY=1;exitDx=0;exitDy=0;strokeColor=#582524;" parent="1" source="INTvyp4umUeD44u8Y7Vy-14" target="t-YVA2jv_oW3WsaUQnIL-34" edge="1">
          <mxGeometry relative="1" as="geometry" />
        </mxCell>
        <mxCell id="pxTbZ2emt06Gn4SpNx5B-11" value="Да" style="edgeLabel;html=1;align=center;verticalAlign=middle;resizable=0;points=[];fontColor=#582524;labelBackgroundColor=default;fontSize=11;" parent="pxTbZ2emt06Gn4SpNx5B-5" vertex="1" connectable="0">
          <mxGeometry x="-0.88" relative="1" as="geometry">
            <mxPoint y="-8" as="offset" />
          </mxGeometry>
        </mxCell>
        <mxCell id="pxTbZ2emt06Gn4SpNx5B-7" value="" style="edgeStyle=orthogonalEdgeStyle;rounded=0;orthogonalLoop=1;jettySize=auto;html=1;strokeColor=#582524;" parent="1" source="INTvyp4umUeD44u8Y7Vy-1" target="pxTbZ2emt06Gn4SpNx5B-6" edge="1">
          <mxGeometry relative="1" as="geometry">
            <mxPoint x="240" y="140" as="targetPoint" />
            <mxPoint x="520" y="520" as="sourcePoint" />
          </mxGeometry>
        </mxCell>
        <mxCell id="pxTbZ2emt06Gn4SpNx5B-8" value="&lt;font style=&quot;font-size: 14px;&quot;&gt;Нет&lt;/font&gt;" style="edgeLabel;html=1;align=center;verticalAlign=middle;resizable=0;points=[];fontColor=#582524;labelBackgroundColor=default;" parent="pxTbZ2emt06Gn4SpNx5B-7" connectable="0" vertex="1">
          <mxGeometry x="-0.5872" y="3" relative="1" as="geometry">
            <mxPoint x="-8" y="-3" as="offset" />
          </mxGeometry>
        </mxCell>
        <mxCell id="pxTbZ2emt06Gn4SpNx5B-6" value="Поражение" style="rounded=0;whiteSpace=wrap;html=1;strokeColor=#582524;fontColor=#EDDBC7;fillColor=#934A37;" parent="1" vertex="1">
          <mxGeometry x="294" y="490" width="120" height="60" as="geometry" />
        </mxCell>
      </root>
    </mxGraphModel>
  </diagram>
</mxfile>
